# xmcd
#
# Track frame offsets: 
#        150
#        20326
#        50252
#        69378
#        97129
#        112955
#        129681
#        146782
#        169283
#        189459
#        207235
#
# Disc length: 2959 seconds
#
# Revision: 8
# Processed by: cddbd v1.5.2PL0 Copyright (c) Steve Scherf et al.
# Submitted via: ExactAudioCopy v1.0b3
#
DISCID=a00b8d0b
DTITLE=Tadeusz Nalepa - Jesteś w piekle (MMPCDDG 0466)
DYEAR=1993
DGENRE=Blues
TTITLE0=Wilczych praw dziś czas
TTITLE1=Jesteś w piekle
TTITLE2=Kiedy znowu zacznę wątpić
TTITLE3=Zawsze wierny mi
TTITLE4=Kiedyś ci wierzyłem
TTITLE5=Znam cię życie
TTITLE6=Słowa
TTITLE7=Tak to ja
TTITLE8=Łzą nie zyskasz nic
TTITLE9=Takie jest życie
TTITLE10=Żyj chwilą
EXTD=
EXTT0=
EXTT1=
EXTT2=
EXTT3=
EXTT4=
EXTT5=
EXTT6=
EXTT7=
EXTT8=
EXTT9=
EXTT10=
PLAYORDER=
